C:\OpenCap\opencap-processing\Data\f695a51c-2aed-4feb-b28d-2290ed51e9ec\OpenSimData\Dynamics\Javelin50\GRF_resultant_Javelin50_0.mot
version=1
nRows=9
nColumns=19
inDegrees=yes
endheader 
time	ground_force_right_vx	ground_force_right_vy	ground_force_right_vz	ground_force_right_px	ground_force_right_py	ground_force_right_pz	ground_torque_right_x	ground_torque_right_y	ground_torque_right_z	ground_force_left_vx	ground_force_left_vy	ground_force_left_vz	ground_force_left_px	ground_force_left_py	ground_force_left_pz	ground_torque_left_x	ground_torque_left_y	ground_torque_left_z	
          3.33000000	        -67.62846210	         39.56959377	        -12.92043812	         -1.83410182	          0.00000000	         -0.16672799	          0.00000000	          0.00000003	          0.00000000	       -295.90726748	        559.56221944	         59.70068165	         -0.81409495	          0.00000000	         -0.37870164	          0.00000000	         -3.81236189	          0.00000000	
          3.34000000	        -69.88564953	         35.00165213	         -5.50065719	         -1.81266741	          0.00000000	         -0.16177366	          0.00000000	          0.00000017	          0.00000000	       -278.52960950	        616.90811726	         41.79282112	         -0.81691238	          0.00000000	         -0.38546580	          0.00000000	         -7.97093117	          0.00000000	
          3.35000000	        -43.41432381	         18.86507074	          2.36933416	         -1.78598920	          0.00000000	         -0.15922262	          0.00000000	          0.00000089	          0.00000000	       -260.20254019	        593.95928735	         74.95476660	         -0.81382950	          0.00000000	         -0.38866641	          0.00000000	        -13.10162482	          0.00000000	
          3.36000000	         -0.00016060	          0.00007520	          0.00001881	         -1.73753676	          0.00000000	         -0.07704312	          0.00000000	         -0.00000003	          0.00000000	       -224.62858810	        602.84248501	         92.91250558	         -0.81335304	          0.00000000	         -0.39622073	          0.00000000	        -27.41664635	          0.00000000	
          3.37000000	         -0.00004500	          0.00001911	          0.00000064	         -1.70880148	          0.00000000	         -0.07460725	          0.00000000	         -0.00000000	          0.00000000	       -222.86595916	        650.29486381	        112.58529037	         -0.81302442	          0.00000000	         -0.40190705	          0.00000000	        -34.03252738	          0.00000000	
          3.38000000	          0.00000000	         -0.00000000	          0.00000000	          0.00000000	          0.00000000	          0.00000000	          0.00000000	          0.00000000	          0.00000000	       -235.20786427	        706.97691101	         96.75213851	         -0.81367007	          0.00000000	         -0.40546568	          0.00000000	        -39.37193762	          0.00000000	
          3.39000000	          0.00000000	         -0.00000000	          0.00000000	          0.00000000	          0.00000000	          0.00000000	          0.00000000	          0.00000000	          0.00000000	       -204.19292636	        723.40543982	         87.63949122	         -0.81463559	          0.00000000	         -0.40645037	          0.00000000	        -41.13585349	          0.00000000	
          3.40000000	          0.00000000	         -0.00000000	          0.00000000	          0.00000000	          0.00000000	          0.00000000	          0.00000000	          0.00000000	          0.00000000	       -196.31973841	        749.80807142	         34.27394251	         -0.81550937	          0.00000000	         -0.40620154	          0.00000000	        -42.08158592	          0.00000000	
          3.41000000	          0.00000000	         -0.00000000	          0.00000000	          0.00000000	          0.00000000	          0.00000000	          0.00000000	          0.00000000	          0.00000000	       -122.80207395	        731.44333794	         41.45181461	         -0.81428508	          0.00000000	         -0.40358662	          0.00000000	        -38.90578667	          0.00000000	
